<?xml version="1.0" encoding="utf-8"?>
<!-- Generator: Adobe Illustrator 19.0.0, SVG Export Plug-In . SVG Version: 6.00 Build 0)  -->
<svg version="1.1" id="Layer_1" focusable="false" xmlns="http://www.w3.org/2000/svg" xmlns:xlink="http://www.w3.org/1999/xlink"
	 x="0px" y="0px" viewBox="-244 45 14 12" style="enable-background:new -244 45 14 12;" xml:space="preserve">
<style type="text/css">
	.st0{fill:#2F576E;}
	.st1{fill:#00FFFF;}
</style>
<path class="st0" d="M-231.3,48h-0.9v-0.4c0-0.2-0.2-0.4-0.4-0.4h-0.9c-0.2,0-0.4,0.2-0.4,0.4V48h-0.9c-0.2,0-0.4,0.2-0.4,0.4v7.2
	c0,0.2,0.2,0.4,0.4,0.4h3.6c0.2,0,0.4-0.2,0.4-0.4v-7.2C-230.8,48.2-231,48-231.3,48z"/>
<path class="st0" d="M-239.1,48h-0.9v-0.4c0-0.2-0.2-0.4-0.4-0.4h-0.9c-0.2,0-0.4,0.2-0.4,0.4V48h-0.9c-0.2,0-0.4,0.2-0.4,0.4v7.2
	c0,0.2,0.2,0.4,0.4,0.4h3.6c0.2,0,0.4-0.2,0.4-0.4v-7.2C-238.7,48.2-238.9,48-239.1,48z"/>
<path class="st1" d="M-235,47h-1v-0.5c0-0.3-0.2-0.5-0.5-0.5h-1c-0.3,0-0.5,0.2-0.5,0.5V47h-1c-0.3,0-0.5,0.2-0.5,0.5v8
	c0,0.3,0.2,0.5,0.5,0.5h4c0.3,0,0.5-0.2,0.5-0.5v-8C-234.5,47.2-234.7,47-235,47z"/>
</svg>
