<?xml version="1.0" encoding="utf-8"?>
<!-- Generator: Adobe Illustrator 19.0.0, SVG Export Plug-In . SVG Version: 6.00 Build 0)  -->
<svg version="1.1" id="Layer_1" xmlns="http://www.w3.org/2000/svg" xmlns:xlink="http://www.w3.org/1999/xlink" x="0px" y="0px"
	 viewBox="0 0 500 100" style="enable-background:new 0 0 500 100;" xml:space="preserve">
<style type="text/css">
	.st0{fill:#FFFFFF;}
	.st1{fill:#00FFFF;}
</style>
<g id="XMLID_160_">
	<path id="XMLID_2_" class="st0" d="M96.4,77.1V16.4h24.1c4.9,0,9,1.5,12.3,4.4c3.4,2.9,5,6.6,5,11c0,5.8-2.9,10.4-7.7,12.2
		c7.7,1.4,12.2,7.3,12.2,15c0,5.1-1.7,9.5-5.3,12.9c-3.5,3.4-7.8,5-13.1,5H96.4V77.1z M109.5,40.5h8.8c3.8,0,6.5-2.7,6.5-6.4
		c0-3.6-2.7-6.3-6.4-6.3h-8.9C109.5,27.8,109.5,40.5,109.5,40.5z M109.5,65.4h11.6c4.5,0,7.8-3.2,7.8-7.4s-3.3-7.1-7.9-7.1h-11.5
		L109.5,65.4L109.5,65.4z"/>
	<path id="XMLID_6_" class="st0" d="M166.1,49.8c6.3-0.6,8.9-1.3,8.9-4c0-2.4-2-3.7-5.9-3.7c-4.6,0-8.4,1.8-11.6,5.5l-7.6-6.5
		c4.6-6.2,11-9.3,19.1-9.3c11.7,0,18.8,5.5,18.8,14.8v16.5c0,3,1,3.4,3.3,3.4h0.3v10.3c-1.2,0.6-3,1-5.2,1c-2.4,0-4.5-0.6-6.2-1.9
		c-0.9-0.8-1.6-1.7-2-2.9c-2.9,3.5-7.8,5.2-14.8,5.2c-9.7,0-16.3-5.3-16.3-13.4C146.7,55.8,152.6,51,166.1,49.8z M165.1,67.4
		c6.2,0,9.8-2.6,9.8-7.7v-3.2c-0.4,0.4-1.1,0.7-2.4,1l-1.6,0.3c-1,0.1-3.4,0.4-4.5,0.7c-4.5,0.7-7.1,1.9-7.1,5
		C159.3,66.2,161.2,67.4,165.1,67.4z"/>
	<path id="XMLID_9_" class="st0" d="M198.7,44.9H193V33.2h5.7V16.4h12.6v16.8h9.7v11.7h-9.7v15.6c0,4.2,1.7,5.8,5.6,5.8
		c0.7,0,1.8-0.1,3.3-0.3v11.5c-1.7,0.4-3.8,0.6-6.3,0.6c-10.1,0-15.1-5.2-15.1-15.6V44.9H198.7z"/>
	<path id="XMLID_11_" class="st0" d="M229.2,44.9h-5.7V33.2h5.7V16.4h12.6v16.8h9.7v11.7h-9.7v15.6c0,4.2,1.7,5.8,5.6,5.8
		c0.7,0,1.8-0.1,3.3-0.3v11.5c-1.7,0.4-3.8,0.6-6.3,0.6c-10.1,0-15.1-5.2-15.1-15.6V44.9H229.2z"/>
	<path id="XMLID_13_" class="st0" d="M253.6,55c0-6.9,2.3-12.4,6.7-16.6c4.4-4.3,10.2-6.3,17-6.3c6.7,0,12.1,2.2,16.3,6.4
		c4.2,4.2,6.3,9.5,6.3,15.8c0,1.5-0.1,2.9-0.2,4.2h-33.1c0.3,5.2,4.8,8.6,11.6,8.6c4.1,0,7.6-1.4,10.7-4.3l7.6,7.2
		c-5.1,5.3-11.5,8-18.9,8c-7.2,0-13-2.1-17.4-6.2c-4.4-4.2-6.6-9.6-6.6-16.5V55z M286.8,50c0-4.1-4.3-7.3-9.5-7.3
		c-5.6,0-10.3,3.2-10.6,7.3H286.8z"/>
	<path id="XMLID_16_" class="st0" d="M306.3,77.1V33.2h13v6c2-4.4,6.7-7,12.7-7c0.9,0,2,0.1,3.4,0.3v12.2c-1.3-0.3-2.8-0.4-4.3-0.4
		c-7.4,0-11.7,4.2-11.7,11.4v21.4H306.3z"/>
	<path id="XMLID_18_" class="st0" d="M348.3,14.7c4.1,0,7.4,3.2,7.4,7.4c0,4.1-3.3,7.3-7.4,7.3c-4.1,0-7.4-3.2-7.4-7.3
		C340.8,17.9,344.1,14.7,348.3,14.7z M341.8,77.1V33.2h13v43.8h-13V77.1z"/>
	<path id="XMLID_21_" class="st0" d="M360.5,55c0-6.9,2.3-12.4,6.7-16.6c4.4-4.3,10.2-6.3,17-6.3c6.7,0,12.1,2.2,16.3,6.4
		c4.2,4.2,6.3,9.5,6.3,15.8c0,1.5-0.1,2.9-0.2,4.2h-33.1c0.3,5.2,4.8,8.6,11.6,8.6c4.1,0,7.6-1.4,10.7-4.3l7.6,7.2
		c-5.1,5.3-11.5,8-18.9,8c-7.2,0-13-2.1-17.4-6.2c-4.4-4.2-6.6-9.6-6.6-16.5V55z M393.8,50c0-4.1-4.3-7.3-9.5-7.3
		c-5.6,0-10.3,3.2-10.6,7.3H393.8z"/>
	<path id="XMLID_24_" class="st0" d="M417,62.3c2.4,2.9,7,4.8,12,4.8c4.4,0,6.6-1.2,6.6-3.6c0-0.9-0.5-1.6-1.5-2.1s-2.7-1.1-5.3-1.7
		c-2.6-0.6-4.6-1.2-5.9-1.7c-6.7-2.3-10.1-6.3-10.1-12.2c0-4.4,1.7-7.9,5-10.3c3.3-2.5,7.3-3.7,12.1-3.7c6.2,0,11.1,1.9,15,5.6
		l-6.2,8.5c-2.3-2.2-5.5-3.2-9.2-3.2c-2.8,0-4.3,1.1-4.3,2.8c0,1.1,0.4,1.7,1.8,2.3c1.7,0.7,5.3,1.3,10.2,3
		c7.2,2.4,10.8,6.6,10.8,12.4c0,9-6.4,14.8-19.3,14.8c-8.5,0-14.9-2.6-19.1-7.8L417,62.3z"/>
</g>
<g id="XMLID_252_">
	<polygon id="XMLID_253_" class="st1" points="29.3,39.5 0.3,39.5 0.3,53.5 29.3,53.5 29.3,85.5 42.3,85.5 42.3,7.5 29.3,7.5 	"/>
	<polygon id="XMLID_254_" class="st1" points="86.3,40.5 68.3,40.5 68.3,24.5 55.3,24.5 55.3,40.6 55.3,53.9 55.3,68.5 68.3,68.5 
		68.3,53.5 86.3,53.5 	"/>
</g>
<g id="XMLID_1_">
</g>
<g id="XMLID_26_">
</g>
<g id="XMLID_27_">
</g>
<g id="XMLID_28_">
</g>
<g id="XMLID_29_">
</g>
<g id="XMLID_30_">
</g>
<g id="XMLID_31_">
</g>
<g id="XMLID_32_">
</g>
<g id="XMLID_33_">
</g>
<g id="XMLID_34_">
</g>
<g id="XMLID_35_">
</g>
<g id="XMLID_36_">
</g>
<g id="XMLID_37_">
</g>
<g id="XMLID_38_">
</g>
<g id="XMLID_39_">
</g>
</svg>
